PathFileType	4	(X/Y/Z)	Kaydara	
DataRate	CameraRate	NumFrames	NumMarkers	Units	OrigDataRate	OrigDataStartFrame	OrigNumFrames	
60.00	60.00	4	74	mm	60.00	645	250	
Frame#	Time	N_lasi			N_rasi			N_rpsi			N_lpsi			N_fneck			N_bneck			N_fhead			N_rhead			N_lhead			N_rshld			N_relbtop			N_relbext			N_relblow			N_rwrext			N_rwrtop			N_rwrlow			N_lshld			N_lelbext			N_lelblow			N_lelbtop			N_lwrext			N_lwrtop			N_lwrlow			N_rtopleg			N_ltopleg			N_rkneefr			N_rkneebk			N_rkneeis			N_lkneefr			N_lknssbk			N_lkneeis			N_rankfr			N_rankis			N_rankbk			N_lankfr			N_lankbk			N_lankis			D_lasi			D_rasi			D_rpsi			D_lpsi			D_fneck			D_bneck			D_fhead			D_rhead			D_lhead			D_rshld			D_relbtop			D_relbext			D_relblow			D_rwrext			D_rwrtop			D_rwrlow			D_lshld			D_lelbext			D_lelblow			D_lelbtop			D_lwrext			D_lwrtop			D_lwrlow			D_rtopleg			D_ltopleg			D_rkneefr			D_rkneebk			D_rkneeis			D_lkneefr			D_lknssbk			D_lkneeis			D_rankfr			D_rankis			D_rankbk			D_lankfr			D_lankbk			D_lankis			
		X1	Y1	Z1	X2	Y2	Z2	X3	Y3	Z3	X4	Y4	Z4	X5	Y5	Z5	X6	Y6	Z6	X7	Y7	Z7	X8	Y8	Z8	X9	Y9	Z9	X10	Y10	Z10	X11	Y11	Z11	X12	Y12	Z12	X13	Y13	Z13	X14	Y14	Z14	X15	Y15	Z15	X16	Y16	Z16	X17	Y17	Z17	X18	Y18	Z18	X19	Y19	Z19	X20	Y20	Z20	X21	Y21	Z21	X22	Y22	Z22	X23	Y23	Z23	X24	Y24	Z24	X25	Y25	Z25	X26	Y26	Z26	X27	Y27	Z27	X28	Y28	Z28	X29	Y29	Z29	X30	Y30	Z30	X31	Y31	Z31	X32	Y32	Z32	X33	Y33	Z33	X34	Y34	Z34	X35	Y35	Z35	X36	Y36	Z36	X37	Y37	Z37	X38	Y38	Z38	X39	Y39	Z39	X40	Y40	Z40	X41	Y41	Z41	X42	Y42	Z42	X43	Y43	Z43	X44	Y44	Z44	X45	Y45	Z45	X46	Y46	Z46	X47	Y47	Z47	X48	Y48	Z48	X49	Y49	Z49	X50	Y50	Z50	X51	Y51	Z51	X52	Y52	Z52	X53	Y53	Z53	X54	Y54	Z54	X55	Y55	Z55	X56	Y56	Z56	X57	Y57	Z57	X58	Y58	Z58	X59	Y59	Z59	X60	Y60	Z60	X61	Y61	Z61	X62	Y62	Z62	X63	Y63	Z63	X64	Y64	Z64	X65	Y65	Z65	X66	Y66	Z66	X67	Y67	Z67	X68	Y68	Z68	X69	Y69	Z69	X70	Y70	Z70	X71	Y71	Z71	X72	Y72	Z72	X73	Y73	Z73	X74	Y74	Z74	

94	10.733	-1088.29811	1072.00447	150.95410	-1295.28183	1099.49883	0.18489	-1163.91655	1150.72411	-252.64029	-863.93745	1135.53253	-59.18469	-962.00691	1508.32458	-91.69618	-1064.80453	1609.20807	-61.49330	-1106.83403	1666.99020	182.52834	-1136.99738	1710.62027	-16.35250	-996.60744	1690.36804	52.67647	-1291.77277	1467.12570	-161.16180	-1361.23810	1154.49913	-263.21901	-1400.84290	1130.63766	-134.87950	-1381.41663	1165.87753	-176.97803	-1427.43225	869.58527	-141.09319	-1433.71582	883.84636	-96.01659	-1390.49316	888.04680	-76.80973	-831.39374	1446.16486	27.02590	-863.05519	1099.55902	-23.02789	-805.19585	1103.64380	63.60163	-774.66614	1104.91714	-19.11400	-808.97820	807.46025	27.74173	-833.85941	798.02238	67.66397	-879.20341	809.09729	42.72834	-1311.47629	939.79210	-162.45121	-881.59790	977.92648	37.58080	-1218.10677	470.82043	-215.08995	-1129.26834	544.34444	-309.45129	-1087.90665	493.23399	-178.74386	-1138.32535	524.93351	178.74454	-1035.99022	511.44684	95.36116	-1170.91606	508.90156	41.90464	-1068.19260	180.95427	-470.19184	-1018.89587	173.17770	-406.31565	-971.29387	201.72056	-471.77139	-1175.20294	165.63637	184.51868	-1124.68178	146.98166	121.83769	-1212.42905	165.61674	117.56749	232.21317	1042.09618	219.04814	514.24137	1058.53355	194.92311	481.37562	1150.56892	400.05733	264.50167	1128.54424	417.92484	307.71860	1539.62250	213.08327	349.81647	1611.74744	326.15837	234.41261	1710.53513	125.14407	384.91848	1746.54297	223.42596	250.71434	1730.60654	300.91789	533.56560	1499.53339	211.46946	628.34175	1157.84996	220.29879	552.66865	1158.99597	208.32890	621.11668	1200.80910	144.98632	607.04765	968.10120	44.51221	582.99553	999.25072	1.26433	535.37922	998.70430	29.05664	149.32450	1485.60532	400.75733	207.62989	1152.81120	405.71667	113.45167	1183.34747	435.69355	179.06803	1161.21605	479.54967	105.15645	922.17667	440.52181	90.94612	927.29973	398.34492	133.27442	931.97159	369.58973	582.86137	1005.23773	279.29781	191.50309	1004.97009	357.07310	582.18323	456.90502	269.17154	604.34471	518.97297	358.45066	483.15987	486.14876	357.36351	269.53869	479.55647	170.40155	285.24263	484.27929	287.00602	370.99037	480.70827	182.55630	602.50431	189.42844	506.94958	536.59634	201.40757	527.66953	596.51119	231.91891	575.98843	304.40638	153.54018	125.21379	323.80638	127.13783	194.02525	370.77183	154.40613	127.04047 
95	10.750	-1091.24092	1077.09305	170.00740	-1297.46811	1102.34413	20.98495	-1171.14220	1151.39153	-234.51878	-870.84007	1138.26599	-44.49553	-965.94482	1510.38208	-75.95500	-1068.74229	1611.26556	-45.75212	-1108.32230	1667.92969	199.42518	-1140.51674	1712.45392	1.13689	-999.35791	1692.09412	68.61355	-1296.98624	1469.49295	-142.80900	-1362.40845	1156.73752	-246.48830	-1402.63672	1132.14020	-118.10921	-1383.83392	1166.64406	-160.16813	-1427.87415	867.45110	-135.65845	-1434.87747	879.75288	-90.10181	-1391.96533	883.75923	-70.11045	-835.06111	1448.48892	41.86493	-869.71657	1100.92522	-2.70781	-811.57043	1105.96527	83.10058	-780.61852	1106.00212	0.35888	-817.55371	809.12575	52.50009	-842.49550	800.87227	92.29377	-887.61635	811.78741	66.90174	-1318.50677	941.32889	-139.85169	-885.56030	979.76730	53.17635	-1242.11731	469.05209	-189.49739	-1151.35117	543.28163	-283.22525	-1110.68375	490.49110	-154.68444	-1143.83385	524.35429	193.36159	-1040.49286	512.66800	110.74480	-1175.01396	511.80893	56.87997	-1083.73245	190.17570	-457.44900	-1036.37009	180.29772	-393.82603	-987.61200	213.00209	-457.26677	-1178.28835	163.96519	188.46600	-1126.58669	147.51192	126.54655	-1214.27208	165.60408	120.80968	223.36689	1044.30580	208.70514	504.46819	1060.98701	178.17627	475.81997	1151.33797	385.52353	259.57031	1130.50102	406.68724	299.99495	1541.59027	201.62897	343.45448	1613.19275	314.63154	225.63700	1712.23953	115.11159	377.34093	1748.21930	211.65207	243.94768	1731.94733	290.63419	526.18744	1502.66144	198.51381	623.73634	1162.37778	211.03052	548.08144	1162.53281	199.38488	615.75424	1203.10966	134.48170	605.16342	966.65054	41.73541	580.37926	995.74104	-2.36472	532.93964	995.25246	25.69864	142.40924	1487.94113	389.19491	199.32812	1155.35667	391.60240	105.75588	1185.21980	421.97567	171.17861	1162.50214	466.14948	97.03729	924.17870	423.84270	83.19183	929.67468	381.66821	126.12282	934.61678	353.50510	575.20340	1006.71875	261.54612	185.84352	1006.16310	347.81261	582.46098	459.67751	236.06218	604.53304	521.23775	325.87875	483.25924	485.58067	323.93681	265.31898	479.74991	164.88197	282.34386	485.63580	281.32360	366.85234	481.26823	175.90870	604.63371	199.01699	486.18576	538.54546	211.88587	505.94707	598.96595	246.05639	551.99505	303.58658	152.83228	123.47149	323.49697	127.55656	192.72886	369.75159	154.33144	125.12363 
96	10.767	-1093.07617	1083.35022	186.97174	-1298.65692	1106.18713	41.65577	-1177.25060	1152.64114	-215.81230	-875.00229	1141.26877	-29.88697	-970.16403	1512.75330	-60.47800	-1072.96158	1613.63678	-30.27512	-1109.76181	1669.24088	215.70784	-1143.96729	1714.79736	18.12776	-1002.16469	1694.22531	84.12967	-1302.23755	1472.08939	-124.90058	-1363.61023	1159.57596	-230.24538	-1404.44077	1134.23317	-101.84507	-1386.24039	1167.99149	-143.88280	-1428.07373	866.31599	-130.56433	-1435.73029	876.76781	-84.64906	-1393.12469	880.29160	-63.90116	-838.52203	1451.59683	56.29663	-876.01448	1103.53867	17.59577	-817.68387	1109.53293	102.57853	-786.53397	1108.15475	20.65142	-825.74806	812.33490	77.77310	-850.77797	805.20401	117.71948	-895.75623	815.83382	91.39811	-1324.50241	943.82401	-117.34807	-890.76584	980.85716	70.14576	-1265.38658	468.25294	-161.79188	-1175.15907	541.92818	-255.45237	-1134.20822	487.26620	-127.73325	-1147.96936	522.78889	205.38061	-1045.53162	512.79205	121.45411	-1179.10660	512.69402	68.42463	-1100.58090	198.85387	-439.34929	-1053.47816	187.05885	-377.03224	-1005.82268	224.72712	-439.47021	-1180.98892	162.13404	191.47099	-1128.93143	147.37028	129.32899	-1216.52603	164.93166	123.72213	214.32974	1045.45250	198.85433	495.29900	1062.56493	163.73383	470.61417	1151.32042	371.56532	254.54899	1131.61911	395.56126	292.83615	1542.99149	190.82943	337.22301	1614.43817	303.46384	217.24291	1713.58475	105.18148	369.97166	1749.97772	200.02766	237.37469	1733.23914	280.61283	519.27082	1504.83566	185.97448	619.67712	1166.16135	201.60961	543.92223	1164.95644	190.18009	610.87097	1204.68628	124.10690	603.96313	965.19402	38.86778	578.08174	991.90079	-6.14192	531.68354	991.18965	23.15810	135.76818	1489.49432	378.09544	191.16022	1156.93077	378.58223	97.44367	1186.35452	408.42400	162.43860	1162.98866	452.91092	88.22112	925.31815	406.63410	74.88983	931.48232	364.30855	118.39996	936.59439	337.09103	567.59346	1007.91199	244.27885	180.28164	1007.09007	338.68240	579.73278	462.58053	202.95635	603.44902	523.62103	292.94306	481.61835	485.86452	290.93597	261.84790	480.09426	159.08089	279.73598	486.65443	275.53631	363.48076	481.59077	169.48326	605.35866	209.08810	463.41473	539.70673	222.95794	483.31795	600.58472	259.63455	526.59615	303.01952	152.12677	121.61902	323.41759	127.83316	191.15936	369.09481	154.12958	123.25471 
97	10.783	-1094.28108	1089.36836	203.84466	-1299.55582	1110.16342	61.74154	-1182.25441	1154.36974	-197.14394	-878.81477	1144.04976	-13.84702	-974.24118	1515.16174	-45.20463	-1077.03865	1616.04507	-15.00175	-1110.82932	1671.08963	231.40657	-1147.44965	1717.32025	34.56716	-1004.96597	1696.76025	98.71391	-1307.27081	1474.66263	-107.32937	-1364.34753	1162.22710	-213.86126	-1406.18561	1136.27686	-85.71764	-1388.99292	1169.42780	-128.01205	-1428.35709	866.03287	-125.43827	-1436.39175	874.56306	-79.22762	-1393.97888	877.41577	-57.98306	-841.72714	1455.01740	70.52742	-879.15527	1106.30089	34.57017	-823.31245	1113.87741	122.09875	-791.37131	1110.89523	40.66070	-834.03061	816.41945	103.73289	-859.04549	810.57198	143.73742	-903.86841	820.98198	117.82687	-1329.88876	946.97197	-94.98997	-892.87102	982.31453	81.77908	-1286.81839	468.34179	-131.65257	-1198.85643	540.05119	-227.94312	-1156.30463	484.16489	-98.63008	-1151.28204	520.56824	214.66555	-1050.17914	512.64519	129.27464	-1182.84584	512.12933	77.25797	-1116.88194	207.62312	-418.54359	-1067.59712	194.58841	-357.59277	-1023.20961	237.72511	-418.74844	-1182.79961	160.45500	193.61095	-1131.02402	146.96280	131.10336	-1218.69858	163.93076	126.12752	205.99604	1045.96466	189.48877	486.79329	1063.79112	148.98191	465.72483	1151.13060	357.89322	249.57418	1132.57950	385.35423	286.22229	1544.23798	180.30577	331.59771	1615.78796	292.46437	209.12008	1714.74121	95.63343	362.85999	1751.56006	188.76486	231.38149	1734.50424	270.76658	512.71542	1506.14944	173.74962	615.63698	1169.17221	192.44095	540.28004	1166.28685	181.43196	606.38020	1205.57846	113.56715	603.52161	963.52242	35.48130	576.25957	987.83485	-10.01599	530.39783	987.14325	20.20190	129.32698	1490.43594	367.64877	179.23672	1158.55194	362.17369	88.63132	1187.04903	394.51435	152.39643	1162.78809	440.30949	78.74011	925.99869	388.76808	66.12162	932.87445	346.37589	110.13990	938.31421	319.85123	560.22205	1008.91846	227.35979	174.73228	1007.92923	329.44012	574.30576	465.51083	170.21988	600.84225	526.75720	259.76414	478.29685	487.82539	259.42019	258.56495	480.01728	153.39840	276.85524	487.71969	269.69494	360.22354	481.92490	163.28638	604.99435	219.20008	438.86681	539.66095	234.28562	460.08053	602.36317	272.80140	499.74010	302.66768	151.58634	119.92646	323.21587	128.22276	189.78592	368.61931	154.01178	121.65834 
